<?xml version="1.0" encoding="UTF-8" standalone="no"?>
<!DOCTYPE svg PUBLIC "-//W3C//DTD SVG 1.1//EN"
 "http://www.w3.org/Graphics/SVG/1.1/DTD/svg11.dtd">
<!-- Generated by graphviz version 2.48.0 (0)
 -->
<!-- Pages: 1 -->
<svg width="202pt" height="1164pt"
 viewBox="0.00 0.00 202.00 1164.00" xmlns="http://www.w3.org/2000/svg" xmlns:xlink="http://www.w3.org/1999/xlink">
<g id="graph0" class="graph" transform="scale(1 1) rotate(0) translate(4 1160)">
<g id="a_graph0"><a xlink:title=" ">
<polygon fill="white" stroke="transparent" points="-4,4 -4,-1160 198,-1160 198,4 -4,4"/>
</a>
</g>
<!-- 124 -->
<g id="node1" class="node">
<title>124</title>
<g id="a_node1"><a xlink:title="/mnt/nlpgpu&#45;io1/data/terry/ToolProj/.pixi/envs/default/lib/python3.10/site&#45;packages/_pytest/runner.py">
<polygon fill="#ff0000" stroke="#ff0000" points="162,-1064 32,-1064 32,-1012 162,-1012 162,-1064"/>
<text text-anchor="middle" x="97" y="-1052" font-family="Arial" font-size="10.00" fill="#ffffff">runner:122:runtestprotocol</text>
<text text-anchor="middle" x="97" y="-1041" font-family="Arial" font-size="10.00" fill="#ffffff">100.00%</text>
<text text-anchor="middle" x="97" y="-1030" font-family="Arial" font-size="10.00" fill="#ffffff">(0.00%)</text>
<text text-anchor="middle" x="97" y="-1019" font-family="Arial" font-size="10.00" fill="#ffffff">1×</text>
</a>
</g>
</g>
<!-- 1119 -->
<g id="node2" class="node">
<title>1119</title>
<g id="a_node2"><a xlink:title="/mnt/nlpgpu&#45;io1/data/terry/ToolProj/.pixi/envs/default/lib/python3.10/site&#45;packages/_pytest/runner.py">
<polygon fill="#ff0000" stroke="#ff0000" points="162.5,-972 31.5,-972 31.5,-920 162.5,-920 162.5,-972"/>
<text text-anchor="middle" x="97" y="-960" font-family="Arial" font-size="10.00" fill="#ffffff">runner:230:call_and_report</text>
<text text-anchor="middle" x="97" y="-949" font-family="Arial" font-size="10.00" fill="#ffffff">100.00%</text>
<text text-anchor="middle" x="97" y="-938" font-family="Arial" font-size="10.00" fill="#ffffff">(0.00%)</text>
<text text-anchor="middle" x="97" y="-927" font-family="Arial" font-size="10.00" fill="#ffffff">2×</text>
</a>
</g>
</g>
<!-- 124&#45;&gt;1119 -->
<g id="edge1" class="edge">
<title>124&#45;&gt;1119</title>
<path fill="none" stroke="#ff0000" stroke-width="4" d="M97,-1011.93C97,-1002.74 97,-992.17 97,-982.25"/>
<polygon fill="#ff0000" stroke="#ff0000" stroke-width="4" points="100.5,-982.25 97,-972.25 93.5,-982.25 100.5,-982.25"/>
<text text-anchor="middle" x="116.5" y="-995" font-family="Arial" font-size="10.00" fill="#ff0000">100.00%</text>
<text text-anchor="middle" x="116.5" y="-984" font-family="Arial" font-size="10.00" fill="#ff0000">2×</text>
</g>
<!-- 648 -->
<g id="node8" class="node">
<title>648</title>
<g id="a_node8"><a xlink:title="/mnt/nlpgpu&#45;io1/data/terry/ToolProj/.pixi/envs/default/lib/python3.10/site&#45;packages/pluggy/_hooks.py">
<polygon fill="#ff0000" stroke="#ff0000" points="150,-880 44,-880 44,-828 150,-828 150,-880"/>
<text text-anchor="middle" x="97" y="-868" font-family="Arial" font-size="10.00" fill="#ffffff">_hooks:497:__call__</text>
<text text-anchor="middle" x="97" y="-857" font-family="Arial" font-size="10.00" fill="#ffffff">100.00%</text>
<text text-anchor="middle" x="97" y="-846" font-family="Arial" font-size="10.00" fill="#ffffff">(0.00%)</text>
<text text-anchor="middle" x="97" y="-835" font-family="Arial" font-size="10.00" fill="#ffffff">18×</text>
</a>
</g>
</g>
<!-- 1119&#45;&gt;648 -->
<g id="edge11" class="edge">
<title>1119&#45;&gt;648</title>
<path fill="none" stroke="#ff0300" stroke-width="3.99" d="M97,-919.93C97,-910.74 97,-900.17 97,-890.25"/>
<polygon fill="#ff0300" stroke="#ff0300" stroke-width="3.99" points="100.5,-890.25 97,-880.25 93.5,-890.25 100.5,-890.25"/>
<text text-anchor="middle" x="114" y="-903" font-family="Arial" font-size="10.00" fill="#ff0300">99.73%</text>
<text text-anchor="middle" x="114" y="-892" font-family="Arial" font-size="10.00" fill="#ff0300">5×</text>
</g>
<!-- 150 -->
<g id="node3" class="node">
<title>150</title>
<g id="a_node3"><a xlink:title="~">
<polygon fill="#fe0400" stroke="#fe0400" points="180.5,-52 13.5,-52 13.5,0 180.5,0 180.5,-52"/>
<text text-anchor="middle" x="97" y="-40" font-family="Arial" font-size="10.00" fill="#ffffff">~:0:&lt;built&#45;in method builtins.input&gt;</text>
<text text-anchor="middle" x="97" y="-29" font-family="Arial" font-size="10.00" fill="#ffffff">99.64%</text>
<text text-anchor="middle" x="97" y="-18" font-family="Arial" font-size="10.00" fill="#ffffff">(99.64%)</text>
<text text-anchor="middle" x="97" y="-7" font-family="Arial" font-size="10.00" fill="#ffffff">1×</text>
</a>
</g>
</g>
<!-- 151 -->
<g id="node4" class="node">
<title>151</title>
<g id="a_node4"><a xlink:title="/mnt/nlpgpu&#45;io1/data/terry/ToolProj/.pixi/envs/default/lib/python3.10/cmd.py">
<polygon fill="#fe0400" stroke="#fe0400" points="141.5,-144 52.5,-144 52.5,-92 141.5,-92 141.5,-144"/>
<text text-anchor="middle" x="97" y="-132" font-family="Arial" font-size="10.00" fill="#ffffff">cmd:98:cmdloop</text>
<text text-anchor="middle" x="97" y="-121" font-family="Arial" font-size="10.00" fill="#ffffff">99.64%</text>
<text text-anchor="middle" x="97" y="-110" font-family="Arial" font-size="10.00" fill="#ffffff">(0.00%)</text>
<text text-anchor="middle" x="97" y="-99" font-family="Arial" font-size="10.00" fill="#ffffff">1×</text>
</a>
</g>
</g>
<!-- 151&#45;&gt;150 -->
<g id="edge2" class="edge">
<title>151&#45;&gt;150</title>
<path fill="none" stroke="#fe0400" stroke-width="3.99" d="M97,-91.93C97,-82.74 97,-72.17 97,-62.25"/>
<polygon fill="#fe0400" stroke="#fe0400" stroke-width="3.99" points="100.5,-62.25 97,-52.25 93.5,-62.25 100.5,-62.25"/>
<text text-anchor="middle" x="114" y="-75" font-family="Arial" font-size="10.00" fill="#fe0400">99.64%</text>
<text text-anchor="middle" x="114" y="-64" font-family="Arial" font-size="10.00" fill="#fe0400">1×</text>
</g>
<!-- 171 -->
<g id="node5" class="node">
<title>171</title>
<g id="a_node5"><a xlink:title="/mnt/nlpgpu&#45;io1/data/terry/ToolProj/.pixi/envs/default/lib/python3.10/site&#45;packages/_pytest/debugging.py">
<polygon fill="#fe0300" stroke="#fe0300" points="194,-604 0,-604 0,-552 194,-552 194,-604"/>
<text text-anchor="middle" x="97" y="-592" font-family="Arial" font-size="10.00" fill="#ffffff">debugging:288:pytest_exception_interact</text>
<text text-anchor="middle" x="97" y="-581" font-family="Arial" font-size="10.00" fill="#ffffff">99.67%</text>
<text text-anchor="middle" x="97" y="-570" font-family="Arial" font-size="10.00" fill="#ffffff">(0.00%)</text>
<text text-anchor="middle" x="97" y="-559" font-family="Arial" font-size="10.00" fill="#ffffff">1×</text>
</a>
</g>
</g>
<!-- 1105 -->
<g id="node6" class="node">
<title>1105</title>
<g id="a_node6"><a xlink:title="/mnt/nlpgpu&#45;io1/data/terry/ToolProj/.pixi/envs/default/lib/python3.10/site&#45;packages/_pytest/debugging.py">
<polygon fill="#fe0300" stroke="#fe0300" points="162.5,-512 31.5,-512 31.5,-460 162.5,-460 162.5,-512"/>
<text text-anchor="middle" x="97" y="-500" font-family="Arial" font-size="10.00" fill="#ffffff">debugging:340:_enter_pdb</text>
<text text-anchor="middle" x="97" y="-489" font-family="Arial" font-size="10.00" fill="#ffffff">99.67%</text>
<text text-anchor="middle" x="97" y="-478" font-family="Arial" font-size="10.00" fill="#ffffff">(0.00%)</text>
<text text-anchor="middle" x="97" y="-467" font-family="Arial" font-size="10.00" fill="#ffffff">1×</text>
</a>
</g>
</g>
<!-- 171&#45;&gt;1105 -->
<g id="edge3" class="edge">
<title>171&#45;&gt;1105</title>
<path fill="none" stroke="#fe0300" stroke-width="3.99" d="M97,-551.93C97,-542.74 97,-532.17 97,-522.25"/>
<polygon fill="#fe0300" stroke="#fe0300" stroke-width="3.99" points="100.5,-522.25 97,-512.25 93.5,-522.25 100.5,-522.25"/>
<text text-anchor="middle" x="114" y="-535" font-family="Arial" font-size="10.00" fill="#fe0300">99.67%</text>
<text text-anchor="middle" x="114" y="-524" font-family="Arial" font-size="10.00" fill="#fe0300">1×</text>
</g>
<!-- 997 -->
<g id="node10" class="node">
<title>997</title>
<g id="a_node10"><a xlink:title="/mnt/nlpgpu&#45;io1/data/terry/ToolProj/.pixi/envs/default/lib/python3.10/site&#45;packages/_pytest/debugging.py">
<polygon fill="#fe0400" stroke="#fe0400" points="167,-420 27,-420 27,-368 167,-368 167,-420"/>
<text text-anchor="middle" x="97" y="-408" font-family="Arial" font-size="10.00" fill="#ffffff">debugging:402:post_mortem</text>
<text text-anchor="middle" x="97" y="-397" font-family="Arial" font-size="10.00" fill="#ffffff">99.64%</text>
<text text-anchor="middle" x="97" y="-386" font-family="Arial" font-size="10.00" fill="#ffffff">(0.00%)</text>
<text text-anchor="middle" x="97" y="-375" font-family="Arial" font-size="10.00" fill="#ffffff">1×</text>
</a>
</g>
</g>
<!-- 1105&#45;&gt;997 -->
<g id="edge9" class="edge">
<title>1105&#45;&gt;997</title>
<path fill="none" stroke="#fe0400" stroke-width="3.99" d="M97,-459.93C97,-450.74 97,-440.17 97,-430.25"/>
<polygon fill="#fe0400" stroke="#fe0400" stroke-width="3.99" points="100.5,-430.25 97,-420.25 93.5,-430.25 100.5,-430.25"/>
<text text-anchor="middle" x="114" y="-443" font-family="Arial" font-size="10.00" fill="#fe0400">99.64%</text>
<text text-anchor="middle" x="114" y="-432" font-family="Arial" font-size="10.00" fill="#fe0400">1×</text>
</g>
<!-- 341 -->
<g id="node7" class="node">
<title>341</title>
<g id="a_node7"><a xlink:title="/mnt/nlpgpu&#45;io1/data/terry/ToolProj/.pixi/envs/default/lib/python3.10/site&#45;packages/pluggy/_callers.py">
<polygon fill="#ff0000" stroke="#ff0000" points="151,-696 43,-696 43,-644 151,-644 151,-696"/>
<text text-anchor="middle" x="97" y="-684" font-family="Arial" font-size="10.00" fill="#ffffff">_callers:76:_multicall</text>
<text text-anchor="middle" x="97" y="-673" font-family="Arial" font-size="10.00" fill="#ffffff">100.00%</text>
<text text-anchor="middle" x="97" y="-662" font-family="Arial" font-size="10.00" fill="#ffffff">(0.00%)</text>
<text text-anchor="middle" x="97" y="-651" font-family="Arial" font-size="10.00" fill="#ffffff">18×</text>
</a>
</g>
</g>
<!-- 341&#45;&gt;171 -->
<g id="edge4" class="edge">
<title>341&#45;&gt;171</title>
<path fill="none" stroke="#fe0300" stroke-width="3.99" d="M97,-643.93C97,-634.74 97,-624.17 97,-614.25"/>
<polygon fill="#fe0300" stroke="#fe0300" stroke-width="3.99" points="100.5,-614.25 97,-604.25 93.5,-614.25 100.5,-614.25"/>
<text text-anchor="middle" x="114" y="-627" font-family="Arial" font-size="10.00" fill="#fe0300">99.67%</text>
<text text-anchor="middle" x="114" y="-616" font-family="Arial" font-size="10.00" fill="#fe0300">1×</text>
</g>
<!-- 1281 -->
<g id="node9" class="node">
<title>1281</title>
<g id="a_node9"><a xlink:title="/mnt/nlpgpu&#45;io1/data/terry/ToolProj/.pixi/envs/default/lib/python3.10/site&#45;packages/pluggy/_manager.py">
<polygon fill="#ff0000" stroke="#ff0000" points="161,-788 33,-788 33,-736 161,-736 161,-788"/>
<text text-anchor="middle" x="97" y="-776" font-family="Arial" font-size="10.00" fill="#ffffff">_manager:111:_hookexec</text>
<text text-anchor="middle" x="97" y="-765" font-family="Arial" font-size="10.00" fill="#ffffff">100.00%</text>
<text text-anchor="middle" x="97" y="-754" font-family="Arial" font-size="10.00" fill="#ffffff">(0.00%)</text>
<text text-anchor="middle" x="97" y="-743" font-family="Arial" font-size="10.00" fill="#ffffff">18×</text>
</a>
</g>
</g>
<!-- 648&#45;&gt;1281 -->
<g id="edge5" class="edge">
<title>648&#45;&gt;1281</title>
<path fill="none" stroke="#ff0000" stroke-width="4" d="M97,-827.93C97,-818.74 97,-808.17 97,-798.25"/>
<polygon fill="#ff0000" stroke="#ff0000" stroke-width="4" points="100.5,-798.25 97,-788.25 93.5,-798.25 100.5,-798.25"/>
<text text-anchor="middle" x="116.5" y="-811" font-family="Arial" font-size="10.00" fill="#ff0000">100.00%</text>
<text text-anchor="middle" x="116.5" y="-800" font-family="Arial" font-size="10.00" fill="#ff0000">8×</text>
</g>
<!-- 1281&#45;&gt;341 -->
<g id="edge12" class="edge">
<title>1281&#45;&gt;341</title>
<path fill="none" stroke="#ff0000" stroke-width="4" d="M97,-735.93C97,-726.74 97,-716.17 97,-706.25"/>
<polygon fill="#ff0000" stroke="#ff0000" stroke-width="4" points="100.5,-706.25 97,-696.25 93.5,-706.25 100.5,-706.25"/>
<text text-anchor="middle" x="116.5" y="-719" font-family="Arial" font-size="10.00" fill="#ff0000">100.00%</text>
<text text-anchor="middle" x="116.5" y="-708" font-family="Arial" font-size="10.00" fill="#ff0000">8×</text>
</g>
<!-- 1001 -->
<g id="node11" class="node">
<title>1001</title>
<g id="a_node11"><a xlink:title="/mnt/nlpgpu&#45;io1/data/terry/ToolProj/.pixi/envs/default/lib/python3.10/pdb.py">
<polygon fill="#fe0400" stroke="#fe0400" points="146.5,-328 47.5,-328 47.5,-276 146.5,-276 146.5,-328"/>
<text text-anchor="middle" x="97" y="-316" font-family="Arial" font-size="10.00" fill="#ffffff">pdb:342:interaction</text>
<text text-anchor="middle" x="97" y="-305" font-family="Arial" font-size="10.00" fill="#ffffff">99.64%</text>
<text text-anchor="middle" x="97" y="-294" font-family="Arial" font-size="10.00" fill="#ffffff">(0.00%)</text>
<text text-anchor="middle" x="97" y="-283" font-family="Arial" font-size="10.00" fill="#ffffff">1×</text>
</a>
</g>
</g>
<!-- 997&#45;&gt;1001 -->
<g id="edge6" class="edge">
<title>997&#45;&gt;1001</title>
<path fill="none" stroke="#fe0400" stroke-width="3.99" d="M97,-367.93C97,-358.74 97,-348.17 97,-338.25"/>
<polygon fill="#fe0400" stroke="#fe0400" stroke-width="3.99" points="100.5,-338.25 97,-328.25 93.5,-338.25 100.5,-338.25"/>
<text text-anchor="middle" x="114" y="-351" font-family="Arial" font-size="10.00" fill="#fe0400">99.64%</text>
<text text-anchor="middle" x="114" y="-340" font-family="Arial" font-size="10.00" fill="#fe0400">1×</text>
</g>
<!-- 1000 -->
<g id="node12" class="node">
<title>1000</title>
<g id="a_node12"><a xlink:title="/mnt/nlpgpu&#45;io1/data/terry/ToolProj/.pixi/envs/default/lib/python3.10/pdb.py">
<polygon fill="#fe0400" stroke="#fe0400" points="145,-236 49,-236 49,-184 145,-184 145,-236"/>
<text text-anchor="middle" x="97" y="-224" font-family="Arial" font-size="10.00" fill="#ffffff">pdb:316:_cmdloop</text>
<text text-anchor="middle" x="97" y="-213" font-family="Arial" font-size="10.00" fill="#ffffff">99.64%</text>
<text text-anchor="middle" x="97" y="-202" font-family="Arial" font-size="10.00" fill="#ffffff">(0.00%)</text>
<text text-anchor="middle" x="97" y="-191" font-family="Arial" font-size="10.00" fill="#ffffff">1×</text>
</a>
</g>
</g>
<!-- 1001&#45;&gt;1000 -->
<g id="edge8" class="edge">
<title>1001&#45;&gt;1000</title>
<path fill="none" stroke="#fe0400" stroke-width="3.99" d="M97,-275.93C97,-266.74 97,-256.17 97,-246.25"/>
<polygon fill="#fe0400" stroke="#fe0400" stroke-width="3.99" points="100.5,-246.25 97,-236.25 93.5,-246.25 100.5,-246.25"/>
<text text-anchor="middle" x="114" y="-259" font-family="Arial" font-size="10.00" fill="#fe0400">99.64%</text>
<text text-anchor="middle" x="114" y="-248" font-family="Arial" font-size="10.00" fill="#fe0400">1×</text>
</g>
<!-- 1000&#45;&gt;151 -->
<g id="edge7" class="edge">
<title>1000&#45;&gt;151</title>
<path fill="none" stroke="#fe0400" stroke-width="3.99" d="M97,-183.93C97,-174.74 97,-164.17 97,-154.25"/>
<polygon fill="#fe0400" stroke="#fe0400" stroke-width="3.99" points="100.5,-154.25 97,-144.25 93.5,-154.25 100.5,-154.25"/>
<text text-anchor="middle" x="114" y="-167" font-family="Arial" font-size="10.00" fill="#fe0400">99.64%</text>
<text text-anchor="middle" x="114" y="-156" font-family="Arial" font-size="10.00" fill="#fe0400">1×</text>
</g>
<!-- 1118 -->
<g id="node13" class="node">
<title>1118</title>
<g id="a_node13"><a xlink:title="/mnt/nlpgpu&#45;io1/data/terry/ToolProj/.pixi/envs/default/lib/python3.10/site&#45;packages/_pytest/runner.py">
<polygon fill="#ff0000" stroke="#ff0000" points="180.5,-1156 13.5,-1156 13.5,-1104 180.5,-1104 180.5,-1156"/>
<text text-anchor="middle" x="97" y="-1144" font-family="Arial" font-size="10.00" fill="#ffffff">runner:114:pytest_runtest_protocol</text>
<text text-anchor="middle" x="97" y="-1133" font-family="Arial" font-size="10.00" fill="#ffffff">100.00%</text>
<text text-anchor="middle" x="97" y="-1122" font-family="Arial" font-size="10.00" fill="#ffffff">(0.00%)</text>
<text text-anchor="middle" x="97" y="-1111" font-family="Arial" font-size="10.00" fill="#ffffff">1×</text>
</a>
</g>
</g>
<!-- 1118&#45;&gt;124 -->
<g id="edge10" class="edge">
<title>1118&#45;&gt;124</title>
<path fill="none" stroke="#ff0000" stroke-width="4" d="M97,-1103.93C97,-1094.74 97,-1084.17 97,-1074.25"/>
<polygon fill="#ff0000" stroke="#ff0000" stroke-width="4" points="100.5,-1074.25 97,-1064.25 93.5,-1074.25 100.5,-1074.25"/>
<text text-anchor="middle" x="116.5" y="-1087" font-family="Arial" font-size="10.00" fill="#ff0000">100.00%</text>
<text text-anchor="middle" x="116.5" y="-1076" font-family="Arial" font-size="10.00" fill="#ff0000">1×</text>
</g>
</g>
</svg>
